<mxfile host="app.diagrams.net" modified="2023-01-10T22:36:41.666Z" agent="5.0 (Windows NT 10.0; Win64; x64) AppleWebKit/537.36 (KHTML, like Gecko) Chrome/108.0.0.0 Safari/537.36" etag="BsOs_4gIBNlC8SrKa2tg" version="20.8.3" type="github">
  <diagram id="C5RBs43oDa-KdzZeNtuy" name="Page-1">
    <mxGraphModel dx="1434" dy="796" grid="1" gridSize="10" guides="1" tooltips="1" connect="1" arrows="1" fold="1" page="1" pageScale="1" pageWidth="827" pageHeight="1169" math="0" shadow="0">
      <root>
        <mxCell id="WIyWlLk6GJQsqaUBKTNV-0" />
        <mxCell id="WIyWlLk6GJQsqaUBKTNV-1" parent="WIyWlLk6GJQsqaUBKTNV-0" />
        <mxCell id="MPAaYGxvOJcsGDUESuVw-23" value="" style="rounded=0;whiteSpace=wrap;html=1;fillColor=none;" vertex="1" parent="WIyWlLk6GJQsqaUBKTNV-1">
          <mxGeometry x="129" y="100" width="570" height="230" as="geometry" />
        </mxCell>
        <mxCell id="MPAaYGxvOJcsGDUESuVw-25" value="" style="rounded=0;whiteSpace=wrap;html=1;fillColor=none;" vertex="1" parent="WIyWlLk6GJQsqaUBKTNV-1">
          <mxGeometry x="129" y="410" width="570" height="230" as="geometry" />
        </mxCell>
        <mxCell id="MPAaYGxvOJcsGDUESuVw-2" style="rounded=0;orthogonalLoop=1;jettySize=auto;html=1;exitX=1;exitY=0.5;exitDx=0;exitDy=0;entryX=0;entryY=0.5;entryDx=0;entryDy=0;endArrow=none;endFill=0;" edge="1" parent="WIyWlLk6GJQsqaUBKTNV-1" source="MPAaYGxvOJcsGDUESuVw-0" target="MPAaYGxvOJcsGDUESuVw-1">
          <mxGeometry relative="1" as="geometry" />
        </mxCell>
        <mxCell id="MPAaYGxvOJcsGDUESuVw-28" value="1" style="edgeLabel;html=1;align=center;verticalAlign=middle;resizable=0;points=[];fontSize=18;" vertex="1" connectable="0" parent="MPAaYGxvOJcsGDUESuVw-2">
          <mxGeometry x="-0.8655" relative="1" as="geometry">
            <mxPoint x="6" as="offset" />
          </mxGeometry>
        </mxCell>
        <mxCell id="MPAaYGxvOJcsGDUESuVw-29" value="n" style="edgeLabel;html=1;align=center;verticalAlign=middle;resizable=0;points=[];fontSize=18;" vertex="1" connectable="0" parent="MPAaYGxvOJcsGDUESuVw-2">
          <mxGeometry x="0.7798" relative="1" as="geometry">
            <mxPoint as="offset" />
          </mxGeometry>
        </mxCell>
        <mxCell id="MPAaYGxvOJcsGDUESuVw-0" value="User" style="ellipse;whiteSpace=wrap;html=1;" vertex="1" parent="WIyWlLk6GJQsqaUBKTNV-1">
          <mxGeometry x="194" y="190" width="120" height="80" as="geometry" />
        </mxCell>
        <mxCell id="MPAaYGxvOJcsGDUESuVw-7" style="edgeStyle=none;rounded=0;orthogonalLoop=1;jettySize=auto;html=1;exitX=1;exitY=0;exitDx=0;exitDy=0;endArrow=oval;endFill=0;" edge="1" parent="WIyWlLk6GJQsqaUBKTNV-1" source="MPAaYGxvOJcsGDUESuVw-1" target="MPAaYGxvOJcsGDUESuVw-8">
          <mxGeometry relative="1" as="geometry">
            <mxPoint x="624" y="202" as="targetPoint" />
          </mxGeometry>
        </mxCell>
        <mxCell id="MPAaYGxvOJcsGDUESuVw-1" value="Post" style="ellipse;whiteSpace=wrap;html=1;" vertex="1" parent="WIyWlLk6GJQsqaUBKTNV-1">
          <mxGeometry x="454" y="190" width="120" height="80" as="geometry" />
        </mxCell>
        <mxCell id="MPAaYGxvOJcsGDUESuVw-8" value="userId" style="text;html=1;align=center;verticalAlign=middle;resizable=0;points=[];autosize=1;strokeColor=none;fillColor=none;" vertex="1" parent="WIyWlLk6GJQsqaUBKTNV-1">
          <mxGeometry x="604" y="180" width="60" height="30" as="geometry" />
        </mxCell>
        <mxCell id="MPAaYGxvOJcsGDUESuVw-10" value="User.hasMany(Post)" style="text;html=1;align=center;verticalAlign=middle;resizable=0;points=[];autosize=1;strokeColor=none;fillColor=none;" vertex="1" parent="WIyWlLk6GJQsqaUBKTNV-1">
          <mxGeometry x="189" y="285" width="130" height="30" as="geometry" />
        </mxCell>
        <mxCell id="MPAaYGxvOJcsGDUESuVw-11" value="Post.belongsTo(User)" style="text;html=1;align=center;verticalAlign=middle;resizable=0;points=[];autosize=1;strokeColor=none;fillColor=none;" vertex="1" parent="WIyWlLk6GJQsqaUBKTNV-1">
          <mxGeometry x="444" y="285" width="140" height="30" as="geometry" />
        </mxCell>
        <mxCell id="MPAaYGxvOJcsGDUESuVw-12" value="" style="curved=1;endArrow=classic;html=1;rounded=0;fillColor=#f8cecc;strokeColor=#b85450;" edge="1" parent="WIyWlLk6GJQsqaUBKTNV-1">
          <mxGeometry width="50" height="50" relative="1" as="geometry">
            <mxPoint x="254" y="170" as="sourcePoint" />
            <mxPoint x="594" y="170" as="targetPoint" />
            <Array as="points">
              <mxPoint x="264" y="130" />
              <mxPoint x="384" y="180" />
              <mxPoint x="414" y="150" />
              <mxPoint x="444" y="110" />
              <mxPoint x="484" y="110" />
              <mxPoint x="554" y="140" />
            </Array>
          </mxGeometry>
        </mxCell>
        <mxCell id="MPAaYGxvOJcsGDUESuVw-15" style="edgeStyle=none;rounded=0;orthogonalLoop=1;jettySize=auto;html=1;exitX=1;exitY=0.5;exitDx=0;exitDy=0;entryX=0;entryY=0.5;entryDx=0;entryDy=0;endArrow=none;endFill=0;" edge="1" parent="WIyWlLk6GJQsqaUBKTNV-1" source="MPAaYGxvOJcsGDUESuVw-13" target="MPAaYGxvOJcsGDUESuVw-14">
          <mxGeometry relative="1" as="geometry" />
        </mxCell>
        <mxCell id="MPAaYGxvOJcsGDUESuVw-30" value="1" style="edgeLabel;html=1;align=center;verticalAlign=middle;resizable=0;points=[];fontSize=18;" vertex="1" connectable="0" parent="MPAaYGxvOJcsGDUESuVw-15">
          <mxGeometry x="-0.8207" y="1" relative="1" as="geometry">
            <mxPoint as="offset" />
          </mxGeometry>
        </mxCell>
        <mxCell id="MPAaYGxvOJcsGDUESuVw-31" value="1" style="edgeLabel;html=1;align=center;verticalAlign=middle;resizable=0;points=[];fontSize=18;" vertex="1" connectable="0" parent="MPAaYGxvOJcsGDUESuVw-15">
          <mxGeometry x="0.7951" y="-1" relative="1" as="geometry">
            <mxPoint as="offset" />
          </mxGeometry>
        </mxCell>
        <mxCell id="MPAaYGxvOJcsGDUESuVw-13" value="Country" style="ellipse;whiteSpace=wrap;html=1;" vertex="1" parent="WIyWlLk6GJQsqaUBKTNV-1">
          <mxGeometry x="195" y="500" width="120" height="80" as="geometry" />
        </mxCell>
        <mxCell id="MPAaYGxvOJcsGDUESuVw-18" style="edgeStyle=none;rounded=0;orthogonalLoop=1;jettySize=auto;html=1;exitX=1;exitY=0;exitDx=0;exitDy=0;endArrow=oval;endFill=0;" edge="1" parent="WIyWlLk6GJQsqaUBKTNV-1" source="MPAaYGxvOJcsGDUESuVw-14" target="MPAaYGxvOJcsGDUESuVw-19">
          <mxGeometry relative="1" as="geometry">
            <mxPoint x="615" y="500" as="targetPoint" />
          </mxGeometry>
        </mxCell>
        <mxCell id="MPAaYGxvOJcsGDUESuVw-14" value="Capital" style="ellipse;whiteSpace=wrap;html=1;" vertex="1" parent="WIyWlLk6GJQsqaUBKTNV-1">
          <mxGeometry x="455" y="500" width="120" height="80" as="geometry" />
        </mxCell>
        <mxCell id="MPAaYGxvOJcsGDUESuVw-19" value="countryId" style="text;html=1;align=center;verticalAlign=middle;resizable=0;points=[];autosize=1;strokeColor=none;fillColor=none;" vertex="1" parent="WIyWlLk6GJQsqaUBKTNV-1">
          <mxGeometry x="605" y="485" width="70" height="30" as="geometry" />
        </mxCell>
        <mxCell id="MPAaYGxvOJcsGDUESuVw-20" value="Country.hasOne(Capital)" style="text;html=1;align=center;verticalAlign=middle;resizable=0;points=[];autosize=1;strokeColor=none;fillColor=none;" vertex="1" parent="WIyWlLk6GJQsqaUBKTNV-1">
          <mxGeometry x="170" y="590" width="160" height="30" as="geometry" />
        </mxCell>
        <mxCell id="MPAaYGxvOJcsGDUESuVw-21" value="Capital.belongsTo(Country)" style="text;html=1;align=center;verticalAlign=middle;resizable=0;points=[];autosize=1;strokeColor=none;fillColor=none;" vertex="1" parent="WIyWlLk6GJQsqaUBKTNV-1">
          <mxGeometry x="430" y="590" width="170" height="30" as="geometry" />
        </mxCell>
        <mxCell id="MPAaYGxvOJcsGDUESuVw-24" value="&lt;font style=&quot;font-size: 18px;&quot;&gt;1:n&lt;/font&gt;" style="text;html=1;align=center;verticalAlign=middle;resizable=0;points=[];autosize=1;strokeColor=none;fillColor=none;" vertex="1" parent="WIyWlLk6GJQsqaUBKTNV-1">
          <mxGeometry x="130" y="60" width="50" height="40" as="geometry" />
        </mxCell>
        <mxCell id="MPAaYGxvOJcsGDUESuVw-26" value="1:1" style="text;html=1;strokeColor=none;fillColor=none;align=center;verticalAlign=middle;whiteSpace=wrap;rounded=0;fontSize=18;" vertex="1" parent="WIyWlLk6GJQsqaUBKTNV-1">
          <mxGeometry x="129" y="380" width="60" height="30" as="geometry" />
        </mxCell>
        <mxCell id="MPAaYGxvOJcsGDUESuVw-27" value="" style="curved=1;endArrow=classic;html=1;rounded=0;fillColor=#f8cecc;strokeColor=#b85450;" edge="1" parent="WIyWlLk6GJQsqaUBKTNV-1">
          <mxGeometry width="50" height="50" relative="1" as="geometry">
            <mxPoint x="264" y="480" as="sourcePoint" />
            <mxPoint x="604" y="480" as="targetPoint" />
            <Array as="points">
              <mxPoint x="274" y="440" />
              <mxPoint x="394" y="490" />
              <mxPoint x="424" y="460" />
              <mxPoint x="454" y="420" />
              <mxPoint x="494" y="420" />
              <mxPoint x="564" y="450" />
            </Array>
          </mxGeometry>
        </mxCell>
      </root>
    </mxGraphModel>
  </diagram>
</mxfile>
